<?xml version="1.0" encoding="UTF-8" standalone="no"?>
<!DOCTYPE svg PUBLIC "-//W3C//DTD SVG 1.1//EN"
 "http://www.w3.org/Graphics/SVG/1.1/DTD/svg11.dtd">
<!-- Generated by graphviz version 9.0.0 (20230911.1827)
 -->
<!-- Pages: 1 -->
<svg width="90pt" height="116pt"
 viewBox="0.00 0.00 90.17 116.00" xmlns="http://www.w3.org/2000/svg" xmlns:xlink="http://www.w3.org/1999/xlink">
<g id="graph0" class="graph" transform="scale(1 1) rotate(0) translate(4 112)">
<polygon fill="white" stroke="none" points="-4,4 -4,-112 86.17,-112 86.17,4 -4,4"/>
<!-- Chicken -->
<g id="node1" class="node">
<title>Chicken</title>
<ellipse fill="none" stroke="black" cx="41.08" cy="-90" rx="41.08" ry="18"/>
<text text-anchor="middle" x="41.08" y="-84.58" font-family="Times New Roman,serif" font-size="14.00">Chicken</text>
</g>
<!-- Egg -->
<g id="node2" class="node">
<title>Egg</title>
<ellipse fill="none" stroke="black" cx="41.08" cy="-18" rx="27" ry="18"/>
<text text-anchor="middle" x="41.08" y="-12.57" font-family="Times New Roman,serif" font-size="14.00">Egg</text>
</g>
<!-- Chicken&#45;&gt;Egg -->
<g id="edge1" class="edge">
<title>Chicken&#45;&gt;Egg</title>
<path fill="none" stroke="black" d="M35.17,-71.7C34.4,-64.21 34.16,-55.26 34.46,-46.88"/>
<polygon fill="black" stroke="black" points="37.94,-47.35 35.14,-37.13 30.95,-46.87 37.94,-47.35"/>
</g>
<!-- Egg&#45;&gt;Chicken -->
<g id="edge2" class="edge">
<title>Egg&#45;&gt;Chicken</title>
<path fill="none" stroke="black" d="M46.93,-35.62C47.73,-43.02 48,-51.94 47.73,-60.35"/>
<polygon fill="black" stroke="black" points="44.25,-59.98 47.1,-70.19 51.24,-60.43 44.25,-59.98"/>
</g>
</g>
</svg>
